# xmcd
#
# Track frame offsets: 
#        150
#        15691
#        32998
#        47063
#        62007
#        80341
#        96215
#        111442
#        127653
#        143960
#        160548
#        191505
#
# Disc length: 2692 seconds
#
# Revision: 2
# Processed by: cddbd v1.5.2PL0 Copyright (c) Steve Scherf et al.
# Submitted via: ExactAudioCopyFreeDBPlugin 1.0
#
DISCID=980a820c
DTITLE=Love And Theft - World Wide Open
DYEAR=2009
DGENRE=country
TTITLE0=World Wide Open
TTITLE1=Runaway
TTITLE2=Dancing In Circles
TTITLE3=It's Up To You
TTITLE4=You To Miss
TTITLE5=Can't Go Back
TTITLE6=Don't Wake Me
TTITLE7=Freedom
TTITLE8=Slow Down
TTITLE9=Me Without You
TTITLE10=Drowning
TTITLE11=Data Track
EXTD=
EXTT0=
EXTT1=
EXTT2=
EXTT3=
EXTT4=
EXTT5=
EXTT6=
EXTT7=
EXTT8=
EXTT9=
EXTT10=
EXTT11=
PLAYORDER=
